General
Complete name                    : Be Intehaan - Race 2 Video HD Song
Format                           : HD
Format profile                   : Base Media / Version 2
Codec ID                         : HD
File size                        : 75.6 MiB
Duration                         : 2mn 15s
Overall bit rate                 : 4 670 Kbps
Encoded date                     : UTC 2012-12-11 05:31:28
Tagged date                      : UTC 2012-12-11 05:31:28

Screenshots 
http://fun93.net/?attachment_id=67 
http://fun93.net/?attachment_id=68 
http://fun93.net/?attachment_id=69 
http://fun93.net/?attachment_id=70 
http://fun93.net/?attachment_id=71 
http://fun93.net/?attachment_id=72




Video
ID                               : 1
Format                           : AVC
Format/Info                      : Advanced Video Codec
Format profile                   : High@L4.0
Format settings, CABAC           : Yes
Format settings, ReFrames        : 1 frame
Codec ID                         : avc1
Codec ID/Info                    : Advanced Video Coding
Duration                         : 2mn 15s
Bit rate mode                    : Variable
Bit rate                         : 4 475 Kbps
Maximum bit rate                 : 9 495 Kbps
Width                            : 1 920 pixels
Height                           : 1 080 pixels
Display aspect ratio             : 16:9
Frame rate mode                  : Constant
Frame rate                       : 25.000 fps
Color space                      : YUV
Chroma subsampling               : 4:2:0
Bit depth                        : 8 bits
Scan type                        : Progressive
Bits/(Pixel*Frame)               : 0.086
Stream size                      : 72.5 MiB (96%)
Tagged date                      : UTC 2012-12-11 05:31:28

Audio
ID                               : 2
Format                           : AAC
Format/Info                      : Advanced Audio Codec
Format profile                   : LC
Codec ID                         : 40
Duration                         : 2mn 15s
Bit rate mode                    : Variable
Bit rate                         : 192 Kbps
Maximum bit rate                 : 201 Kbps
Channel(s)                       : 2 channels
Channel positions                : Front: L R
Sampling rate                    : 44.1 KHz
Compression mode                 : Lossy
Stream size                      : 3.11 MiB (4%)
Title                            : IsoMedia File Produced by 

